%TF.GenerationSoftware,KiCad,Pcbnew,9.0.3*%
%TF.CreationDate,2026-02-22T14:46:40+11:00*%
%TF.ProjectId,Kicad - Back Panel,4b696361-6420-42d2-9042-61636b205061,rev?*%
%TF.SameCoordinates,Original*%
%TF.FileFunction,Copper,L2,Bot*%
%TF.FilePolarity,Positive*%
%FSLAX46Y46*%
G04 Gerber Fmt 4.6, Leading zero omitted, Abs format (unit mm)*
G04 Created by KiCad (PCBNEW 9.0.3) date 2026-02-22 14:46:40*
%MOMM*%
%LPD*%
G01*
G04 APERTURE LIST*
G04 APERTURE END LIST*
%TA.AperFunction,NonConductor*%
G36*
X228509042Y-46447565D02*
G01*
X228531774Y-46449054D01*
X228763114Y-46464217D01*
X228779172Y-46466332D01*
X229024888Y-46515208D01*
X229040554Y-46519406D01*
X229191736Y-46570725D01*
X229277788Y-46599936D01*
X229292765Y-46606139D01*
X229510336Y-46713433D01*
X229517460Y-46716946D01*
X229531508Y-46725056D01*
X229739815Y-46864243D01*
X229752679Y-46874114D01*
X229941033Y-47039297D01*
X229952502Y-47050766D01*
X230117685Y-47239120D01*
X230127559Y-47251988D01*
X230266743Y-47460292D01*
X230274853Y-47474339D01*
X230385657Y-47699027D01*
X230391864Y-47714013D01*
X230472393Y-47951245D01*
X230476591Y-47966911D01*
X230525465Y-48212613D01*
X230527583Y-48228695D01*
X230544235Y-48482756D01*
X230544500Y-48490866D01*
X230544500Y-105590614D01*
X230543292Y-105607881D01*
X230512516Y-105826734D01*
X230509211Y-105842614D01*
X230447339Y-106065647D01*
X230441991Y-106080960D01*
X230351536Y-106294009D01*
X230344234Y-106308492D01*
X230226749Y-106507905D01*
X230217619Y-106521312D01*
X230075109Y-106703687D01*
X230064308Y-106715787D01*
X229899209Y-106878003D01*
X229886920Y-106888590D01*
X229702061Y-107027868D01*
X229688495Y-107036760D01*
X229487048Y-107150711D01*
X229472439Y-107157757D01*
X229257826Y-107244446D01*
X229242422Y-107249524D01*
X229018336Y-107307458D01*
X229002400Y-107310482D01*
X228772671Y-107338670D01*
X228756476Y-107339588D01*
X228566523Y-107337914D01*
X228551439Y-107336859D01*
X228545671Y-107336100D01*
X228545668Y-107336100D01*
X228502971Y-107336100D01*
X228493772Y-107335758D01*
X228451197Y-107332590D01*
X228444162Y-107333926D01*
X228421044Y-107336100D01*
X83173090Y-107336100D01*
X83157040Y-107335057D01*
X82938910Y-107306583D01*
X82922997Y-107303436D01*
X82720911Y-107249524D01*
X82702786Y-107244688D01*
X82687429Y-107239494D01*
X82476769Y-107152506D01*
X82462215Y-107145348D01*
X82264718Y-107031611D01*
X82251222Y-107022615D01*
X82128323Y-106928526D01*
X82070253Y-106884068D01*
X82058048Y-106873388D01*
X81896714Y-106712407D01*
X81886016Y-106700235D01*
X81747071Y-106519568D01*
X81738046Y-106506093D01*
X81709105Y-106456093D01*
X81623875Y-106308842D01*
X81616685Y-106294302D01*
X81529237Y-106083837D01*
X81524007Y-106068484D01*
X81464777Y-105848404D01*
X81461597Y-105832505D01*
X81460716Y-105825870D01*
X81431602Y-105606581D01*
X81430523Y-105590397D01*
X81430511Y-105579554D01*
X81430318Y-105403784D01*
X81431300Y-105388695D01*
X81431300Y-105342271D01*
X81431557Y-105334295D01*
X81434502Y-105288603D01*
X81433709Y-105284637D01*
X81431300Y-105260315D01*
X81431300Y-105002747D01*
X81903700Y-105002747D01*
X81903700Y-105234852D01*
X81933994Y-105464948D01*
X81994062Y-105689128D01*
X82082877Y-105903545D01*
X82082885Y-105903562D01*
X82198920Y-106104543D01*
X82198921Y-106104545D01*
X82340209Y-106288675D01*
X82340215Y-106288682D01*
X82504317Y-106452784D01*
X82504324Y-106452790D01*
X82688454Y-106594078D01*
X82688456Y-106594079D01*
X82889437Y-106710114D01*
X82889440Y-106710115D01*
X82889448Y-106710120D01*
X83103870Y-106798937D01*
X83328051Y-106859006D01*
X83558155Y-106889300D01*
X83558162Y-106889300D01*
X83790238Y-106889300D01*
X83790245Y-106889300D01*
X84020349Y-106859006D01*
X84244530Y-106798937D01*
X84458952Y-106710120D01*
X84659948Y-106594076D01*
X84844077Y-106452789D01*
X85008189Y-106288677D01*
X85149476Y-106104548D01*
X85265520Y-105903552D01*
X85354337Y-105689130D01*
X85414406Y-105464949D01*
X85444700Y-105234845D01*
X85444700Y-105002755D01*
X85444699Y-105002747D01*
X226531300Y-105002747D01*
X226531300Y-105234852D01*
X226561594Y-105464948D01*
X226621662Y-105689128D01*
X226710477Y-105903545D01*
X226710485Y-105903562D01*
X226826520Y-106104543D01*
X226826521Y-106104545D01*
X226967809Y-106288675D01*
X226967815Y-106288682D01*
X227131917Y-106452784D01*
X227131924Y-106452790D01*
X227316054Y-106594078D01*
X227316056Y-106594079D01*
X227517037Y-106710114D01*
X227517040Y-106710115D01*
X227517048Y-106710120D01*
X227731470Y-106798937D01*
X227955651Y-106859006D01*
X228185755Y-106889300D01*
X228185762Y-106889300D01*
X228417838Y-106889300D01*
X228417845Y-106889300D01*
X228647949Y-106859006D01*
X228872130Y-106798937D01*
X229086552Y-106710120D01*
X229287548Y-106594076D01*
X229471677Y-106452789D01*
X229635789Y-106288677D01*
X229777076Y-106104548D01*
X229893120Y-105903552D01*
X229981937Y-105689130D01*
X230042006Y-105464949D01*
X230072300Y-105234845D01*
X230072300Y-105002755D01*
X230042006Y-104772651D01*
X229981937Y-104548470D01*
X229893120Y-104334048D01*
X229893114Y-104334037D01*
X229777079Y-104133056D01*
X229777078Y-104133054D01*
X229635790Y-103948924D01*
X229635784Y-103948917D01*
X229471682Y-103784815D01*
X229471675Y-103784809D01*
X229287545Y-103643521D01*
X229287543Y-103643520D01*
X229086562Y-103527485D01*
X229086554Y-103527481D01*
X229086552Y-103527480D01*
X228872130Y-103438663D01*
X228872131Y-103438663D01*
X228872128Y-103438662D01*
X228730003Y-103400580D01*
X228647949Y-103378594D01*
X228619186Y-103374807D01*
X228417852Y-103348300D01*
X228417845Y-103348300D01*
X228185755Y-103348300D01*
X228185747Y-103348300D01*
X227955651Y-103378594D01*
X227731471Y-103438662D01*
X227517054Y-103527477D01*
X227517037Y-103527485D01*
X227316056Y-103643520D01*
X227316054Y-103643521D01*
X227131924Y-103784809D01*
X227131917Y-103784815D01*
X226967815Y-103948917D01*
X226967809Y-103948924D01*
X226826521Y-104133054D01*
X226826520Y-104133056D01*
X226710485Y-104334037D01*
X226710477Y-104334054D01*
X226621662Y-104548471D01*
X226561594Y-104772651D01*
X226531300Y-105002747D01*
X85444699Y-105002747D01*
X85414406Y-104772651D01*
X85354337Y-104548470D01*
X85265520Y-104334048D01*
X85265514Y-104334037D01*
X85149479Y-104133056D01*
X85149478Y-104133054D01*
X85008190Y-103948924D01*
X85008184Y-103948917D01*
X84844082Y-103784815D01*
X84844075Y-103784809D01*
X84659945Y-103643521D01*
X84659943Y-103643520D01*
X84458962Y-103527485D01*
X84458954Y-103527481D01*
X84458952Y-103527480D01*
X84244530Y-103438663D01*
X84244531Y-103438663D01*
X84244528Y-103438662D01*
X84102403Y-103400580D01*
X84020349Y-103378594D01*
X83991586Y-103374807D01*
X83790252Y-103348300D01*
X83790245Y-103348300D01*
X83558155Y-103348300D01*
X83558147Y-103348300D01*
X83328051Y-103378594D01*
X83103871Y-103438662D01*
X82889454Y-103527477D01*
X82889437Y-103527485D01*
X82688456Y-103643520D01*
X82688454Y-103643521D01*
X82504324Y-103784809D01*
X82504317Y-103784815D01*
X82340215Y-103948917D01*
X82340209Y-103948924D01*
X82198921Y-104133054D01*
X82198920Y-104133056D01*
X82082885Y-104334037D01*
X82082877Y-104334054D01*
X81994062Y-104548471D01*
X81933994Y-104772651D01*
X81903700Y-105002747D01*
X81431300Y-105002747D01*
X81431300Y-100635258D01*
X109025500Y-100635258D01*
X109025500Y-100864741D01*
X109050446Y-101054215D01*
X109055452Y-101092238D01*
X109091153Y-101225478D01*
X109114842Y-101313887D01*
X109202650Y-101525876D01*
X109202657Y-101525890D01*
X109317392Y-101724617D01*
X109457081Y-101906661D01*
X109457089Y-101906670D01*
X109619330Y-102068911D01*
X109619338Y-102068918D01*
X109801382Y-102208607D01*
X109801385Y-102208608D01*
X109801388Y-102208611D01*
X110000112Y-102323344D01*
X110000117Y-102323346D01*
X110000123Y-102323349D01*
X110091480Y-102361190D01*
X110212113Y-102411158D01*
X110433762Y-102470548D01*
X110661266Y-102500500D01*
X110661273Y-102500500D01*
X110890727Y-102500500D01*
X110890734Y-102500500D01*
X111118238Y-102470548D01*
X111339887Y-102411158D01*
X111551888Y-102323344D01*
X111750612Y-102208611D01*
X111932661Y-102068919D01*
X111932665Y-102068914D01*
X111932670Y-102068911D01*
X112094911Y-101906670D01*
X112094914Y-101906665D01*
X112094919Y-101906661D01*
X112234611Y-101724612D01*
X112349344Y-101525888D01*
X112437158Y-101313887D01*
X112496548Y-101092238D01*
X112526500Y-100864734D01*
X112526500Y-100635266D01*
X112526499Y-100635258D01*
X199449500Y-100635258D01*
X199449500Y-100864741D01*
X199474446Y-101054215D01*
X199479452Y-101092238D01*
X199515153Y-101225478D01*
X199538842Y-101313887D01*
X199626650Y-101525876D01*
X199626657Y-101525890D01*
X199741392Y-101724617D01*
X199881081Y-101906661D01*
X199881089Y-101906670D01*
X200043330Y-102068911D01*
X200043338Y-102068918D01*
X200225382Y-102208607D01*
X200225385Y-102208608D01*
X200225388Y-102208611D01*
X200424112Y-102323344D01*
X200424117Y-102323346D01*
X200424123Y-102323349D01*
X200515480Y-102361190D01*
X200636113Y-102411158D01*
X200857762Y-102470548D01*
X201085266Y-102500500D01*
X201085273Y-102500500D01*
X201314727Y-102500500D01*
X201314734Y-102500500D01*
X201542238Y-102470548D01*
X201763887Y-102411158D01*
X201975888Y-102323344D01*
X202174612Y-102208611D01*
X202356661Y-102068919D01*
X202356665Y-102068914D01*
X202356670Y-102068911D01*
X202518911Y-101906670D01*
X202518914Y-101906665D01*
X202518919Y-101906661D01*
X202658611Y-101724612D01*
X202773344Y-101525888D01*
X202861158Y-101313887D01*
X202920548Y-101092238D01*
X202950500Y-100864734D01*
X202950500Y-100635266D01*
X202920548Y-100407762D01*
X202861158Y-100186113D01*
X202797642Y-100032773D01*
X202773349Y-99974123D01*
X202773346Y-99974117D01*
X202773344Y-99974112D01*
X202658611Y-99775388D01*
X202658608Y-99775385D01*
X202658607Y-99775382D01*
X202518918Y-99593338D01*
X202518911Y-99593330D01*
X202356670Y-99431089D01*
X202356661Y-99431081D01*
X202174617Y-99291392D01*
X201975890Y-99176657D01*
X201975876Y-99176650D01*
X201763887Y-99088842D01*
X201542238Y-99029452D01*
X201504215Y-99024446D01*
X201314741Y-98999500D01*
X201314734Y-98999500D01*
X201085266Y-98999500D01*
X201085258Y-98999500D01*
X200868715Y-99028009D01*
X200857762Y-99029452D01*
X200764076Y-99054554D01*
X200636112Y-99088842D01*
X200424123Y-99176650D01*
X200424109Y-99176657D01*
X200225382Y-99291392D01*
X200043338Y-99431081D01*
X199881081Y-99593338D01*
X199741392Y-99775382D01*
X199626657Y-99974109D01*
X199626650Y-99974123D01*
X199538842Y-100186112D01*
X199479453Y-100407759D01*
X199479451Y-100407770D01*
X199449500Y-100635258D01*
X112526499Y-100635258D01*
X112496548Y-100407762D01*
X112437158Y-100186113D01*
X112373642Y-100032773D01*
X112349349Y-99974123D01*
X112349346Y-99974117D01*
X112349344Y-99974112D01*
X112234611Y-99775388D01*
X112234608Y-99775385D01*
X112234607Y-99775382D01*
X112094918Y-99593338D01*
X112094911Y-99593330D01*
X111932670Y-99431089D01*
X111932661Y-99431081D01*
X111750617Y-99291392D01*
X111551890Y-99176657D01*
X111551876Y-99176650D01*
X111339887Y-99088842D01*
X111118238Y-99029452D01*
X111080215Y-99024446D01*
X110890741Y-98999500D01*
X110890734Y-98999500D01*
X110661266Y-98999500D01*
X110661258Y-98999500D01*
X110444715Y-99028009D01*
X110433762Y-99029452D01*
X110340076Y-99054554D01*
X110212112Y-99088842D01*
X110000123Y-99176650D01*
X110000109Y-99176657D01*
X109801382Y-99291392D01*
X109619338Y-99431081D01*
X109457081Y-99593338D01*
X109317392Y-99775382D01*
X109202657Y-99974109D01*
X109202650Y-99974123D01*
X109114842Y-100186112D01*
X109055453Y-100407759D01*
X109055451Y-100407770D01*
X109025500Y-100635258D01*
X81431300Y-100635258D01*
X81431300Y-52908658D01*
X109025500Y-52908658D01*
X109025500Y-53138141D01*
X109050446Y-53327615D01*
X109055452Y-53365638D01*
X109091153Y-53498878D01*
X109114842Y-53587287D01*
X109202650Y-53799276D01*
X109202657Y-53799290D01*
X109317392Y-53998017D01*
X109457081Y-54180061D01*
X109457089Y-54180070D01*
X109619330Y-54342311D01*
X109619338Y-54342318D01*
X109801382Y-54482007D01*
X109801385Y-54482008D01*
X109801388Y-54482011D01*
X110000112Y-54596744D01*
X110000117Y-54596746D01*
X110000123Y-54596749D01*
X110091480Y-54634590D01*
X110212113Y-54684558D01*
X110433762Y-54743948D01*
X110661266Y-54773900D01*
X110661273Y-54773900D01*
X110890727Y-54773900D01*
X110890734Y-54773900D01*
X111118238Y-54743948D01*
X111339887Y-54684558D01*
X111551888Y-54596744D01*
X111750612Y-54482011D01*
X111932661Y-54342319D01*
X111932665Y-54342314D01*
X111932670Y-54342311D01*
X112094911Y-54180070D01*
X112094914Y-54180065D01*
X112094919Y-54180061D01*
X112234611Y-53998012D01*
X112349344Y-53799288D01*
X112437158Y-53587287D01*
X112496548Y-53365638D01*
X112526500Y-53138134D01*
X112526500Y-52908666D01*
X112526499Y-52908658D01*
X199449500Y-52908658D01*
X199449500Y-53138141D01*
X199474446Y-53327615D01*
X199479452Y-53365638D01*
X199515153Y-53498878D01*
X199538842Y-53587287D01*
X199626650Y-53799276D01*
X199626657Y-53799290D01*
X199741392Y-53998017D01*
X199881081Y-54180061D01*
X199881089Y-54180070D01*
X200043330Y-54342311D01*
X200043338Y-54342318D01*
X200225382Y-54482007D01*
X200225385Y-54482008D01*
X200225388Y-54482011D01*
X200424112Y-54596744D01*
X200424117Y-54596746D01*
X200424123Y-54596749D01*
X200515480Y-54634590D01*
X200636113Y-54684558D01*
X200857762Y-54743948D01*
X201085266Y-54773900D01*
X201085273Y-54773900D01*
X201314727Y-54773900D01*
X201314734Y-54773900D01*
X201542238Y-54743948D01*
X201763887Y-54684558D01*
X201975888Y-54596744D01*
X202174612Y-54482011D01*
X202356661Y-54342319D01*
X202356665Y-54342314D01*
X202356670Y-54342311D01*
X202518911Y-54180070D01*
X202518914Y-54180065D01*
X202518919Y-54180061D01*
X202658611Y-53998012D01*
X202773344Y-53799288D01*
X202861158Y-53587287D01*
X202920548Y-53365638D01*
X202950500Y-53138134D01*
X202950500Y-52908666D01*
X202920548Y-52681162D01*
X202861158Y-52459513D01*
X202797642Y-52306173D01*
X202773349Y-52247523D01*
X202773346Y-52247517D01*
X202773344Y-52247512D01*
X202658611Y-52048788D01*
X202658608Y-52048785D01*
X202658607Y-52048782D01*
X202518918Y-51866738D01*
X202518911Y-51866730D01*
X202356670Y-51704489D01*
X202356661Y-51704481D01*
X202174617Y-51564792D01*
X201975890Y-51450057D01*
X201975876Y-51450050D01*
X201763887Y-51362242D01*
X201542238Y-51302852D01*
X201504215Y-51297846D01*
X201314741Y-51272900D01*
X201314734Y-51272900D01*
X201085266Y-51272900D01*
X201085258Y-51272900D01*
X200868715Y-51301409D01*
X200857762Y-51302852D01*
X200764076Y-51327954D01*
X200636112Y-51362242D01*
X200424123Y-51450050D01*
X200424109Y-51450057D01*
X200225382Y-51564792D01*
X200043338Y-51704481D01*
X199881081Y-51866738D01*
X199741392Y-52048782D01*
X199626657Y-52247509D01*
X199626650Y-52247523D01*
X199538842Y-52459512D01*
X199479453Y-52681159D01*
X199479451Y-52681170D01*
X199449500Y-52908658D01*
X112526499Y-52908658D01*
X112496548Y-52681162D01*
X112437158Y-52459513D01*
X112373642Y-52306173D01*
X112349349Y-52247523D01*
X112349346Y-52247517D01*
X112349344Y-52247512D01*
X112234611Y-52048788D01*
X112234608Y-52048785D01*
X112234607Y-52048782D01*
X112094918Y-51866738D01*
X112094911Y-51866730D01*
X111932670Y-51704489D01*
X111932661Y-51704481D01*
X111750617Y-51564792D01*
X111551890Y-51450057D01*
X111551876Y-51450050D01*
X111339887Y-51362242D01*
X111118238Y-51302852D01*
X111080215Y-51297846D01*
X110890741Y-51272900D01*
X110890734Y-51272900D01*
X110661266Y-51272900D01*
X110661258Y-51272900D01*
X110444715Y-51301409D01*
X110433762Y-51302852D01*
X110340076Y-51327954D01*
X110212112Y-51362242D01*
X110000123Y-51450050D01*
X110000109Y-51450057D01*
X109801382Y-51564792D01*
X109619338Y-51704481D01*
X109457081Y-51866738D01*
X109317392Y-52048782D01*
X109202657Y-52247509D01*
X109202650Y-52247523D01*
X109114842Y-52459512D01*
X109055453Y-52681159D01*
X109055451Y-52681170D01*
X109025500Y-52908658D01*
X81431300Y-52908658D01*
X81431300Y-48490866D01*
X81431565Y-48482757D01*
X81435619Y-48420908D01*
X81448217Y-48228683D01*
X81450331Y-48212629D01*
X81499209Y-47966907D01*
X81503406Y-47951245D01*
X81526997Y-47881745D01*
X81583938Y-47714005D01*
X81590136Y-47699039D01*
X81700949Y-47474333D01*
X81709052Y-47460298D01*
X81848248Y-47251976D01*
X81858105Y-47239131D01*
X82023302Y-47050760D01*
X82034760Y-47039302D01*
X82223131Y-46874105D01*
X82235976Y-46864248D01*
X82444298Y-46725052D01*
X82458333Y-46716949D01*
X82683039Y-46606136D01*
X82698005Y-46599938D01*
X82865745Y-46542997D01*
X82935245Y-46519406D01*
X82950907Y-46515209D01*
X83196629Y-46466331D01*
X83212683Y-46464217D01*
X83445648Y-46448948D01*
X83466758Y-46447565D01*
X83474867Y-46447300D01*
X83536692Y-46447300D01*
X228439108Y-46447300D01*
X228500933Y-46447300D01*
X228509042Y-46447565D01*
G37*
%TD.AperFunction*%
M02*
